<mxfile host="65bd71144e">
    <diagram id="mW4CQj8W1_--lRJ3RLgf" name="Página-1">
        <mxGraphModel dx="1795" dy="589" grid="1" gridSize="10" guides="1" tooltips="1" connect="1" arrows="1" fold="1" page="1" pageScale="1" pageWidth="827" pageHeight="1169" math="0" shadow="0">
            <root>
                <mxCell id="0"/>
                <mxCell id="1" parent="0"/>
                <mxCell id="2" value="Sobre el proyecto" style="html=1;whiteSpace=wrap;strokeColor=none;fillColor=#0079D6;labelPosition=center;verticalLabelPosition=middle;verticalAlign=top;align=center;fontSize=12;outlineConnect=0;spacingTop=-6;fontColor=#FFFFFF;sketch=0;shape=mxgraph.sitemap.about_us;" vertex="1" parent="1">
                    <mxGeometry x="380" y="180" width="120" height="70" as="geometry"/>
                </mxCell>
                <mxCell id="5" value="Registro de Usuario" style="html=1;whiteSpace=wrap;strokeColor=none;fillColor=#0079D6;labelPosition=center;verticalLabelPosition=middle;verticalAlign=top;align=center;fontSize=12;outlineConnect=0;spacingTop=-6;fontColor=#FFFFFF;sketch=0;shape=mxgraph.sitemap.form;" vertex="1" parent="1">
                    <mxGeometry x="640" y="180" width="120" height="70" as="geometry"/>
                </mxCell>
                <mxCell id="7" value="Página principal" style="html=1;whiteSpace=wrap;strokeColor=none;fillColor=#0079D6;labelPosition=center;verticalLabelPosition=middle;verticalAlign=top;align=center;fontSize=12;outlineConnect=0;spacingTop=-6;fontColor=#FFFFFF;sketch=0;shape=mxgraph.sitemap.home;" vertex="1" parent="1">
                    <mxGeometry x="-10" y="180" width="120" height="70" as="geometry"/>
                </mxCell>
                <mxCell id="8" value="Info" style="html=1;whiteSpace=wrap;strokeColor=none;fillColor=#0079D6;labelPosition=center;verticalLabelPosition=middle;verticalAlign=top;align=center;fontSize=12;outlineConnect=0;spacingTop=-6;fontColor=#FFFFFF;sketch=0;shape=mxgraph.sitemap.info;" vertex="1" parent="1">
                    <mxGeometry x="-140" y="180" width="120" height="70" as="geometry"/>
                </mxCell>
                <mxCell id="9" value="Inicio de sesión" style="html=1;whiteSpace=wrap;strokeColor=none;fillColor=#0079D6;labelPosition=center;verticalLabelPosition=middle;verticalAlign=top;align=center;fontSize=12;outlineConnect=0;spacingTop=-6;fontColor=#FFFFFF;sketch=0;shape=mxgraph.sitemap.login;" vertex="1" parent="1">
                    <mxGeometry x="770" y="180" width="120" height="70" as="geometry"/>
                </mxCell>
                <mxCell id="10" value="Gestión Usuarios" style="html=1;whiteSpace=wrap;strokeColor=none;fillColor=#0079D6;labelPosition=center;verticalLabelPosition=middle;verticalAlign=top;align=center;fontSize=12;outlineConnect=0;spacingTop=-6;fontColor=#FFFFFF;sketch=0;shape=mxgraph.sitemap.user;" vertex="1" parent="1">
                    <mxGeometry x="250" y="180" width="120" height="70" as="geometry"/>
                </mxCell>
                <mxCell id="11" value="Gestión Modelos" style="html=1;whiteSpace=wrap;strokeColor=none;fillColor=#0079D6;labelPosition=center;verticalLabelPosition=middle;verticalAlign=top;align=center;fontSize=12;outlineConnect=0;spacingTop=-6;fontColor=#FFFFFF;sketch=0;shape=mxgraph.sitemap.products;" vertex="1" parent="1">
                    <mxGeometry x="120" y="180" width="120" height="70" as="geometry"/>
                </mxCell>
                <mxCell id="GLvIYybSQvGpUuVY2-31-14" value="" style="edgeStyle=elbowEdgeStyle;html=1;endArrow=classic;endFill=1;startArrow=none;startFill=0;exitX=0.5;exitY=1;exitDx=0;exitDy=0;elbow=vertical;" edge="1" parent="1" source="GLvIYybSQvGpUuVY2-31-12" target="7">
                    <mxGeometry relative="1" as="geometry"/>
                </mxCell>
                <mxCell id="GLvIYybSQvGpUuVY2-31-12" value="Web" style="rounded=1;fillColor=#23445D;gradientColor=none;strokeColor=none;fontColor=#FFFFFF;fontStyle=1;fontFamily=Tahoma;fontSize=20;" vertex="1" parent="1">
                    <mxGeometry x="280" y="40" width="190" height="80" as="geometry"/>
                </mxCell>
                <mxCell id="GLvIYybSQvGpUuVY2-31-16" style="edgeStyle=elbowEdgeStyle;html=1;entryX=0.5;entryY=0;entryDx=0;entryDy=0;entryPerimeter=0;exitX=0.5;exitY=1;exitDx=0;exitDy=0;elbow=vertical;" edge="1" parent="1" source="GLvIYybSQvGpUuVY2-31-12" target="8">
                    <mxGeometry relative="1" as="geometry"/>
                </mxCell>
                <mxCell id="GLvIYybSQvGpUuVY2-31-22" value="" style="edgeStyle=elbowEdgeStyle;html=1;endArrow=classic;endFill=1;startArrow=none;startFill=0;exitX=0.5;exitY=1;exitDx=0;exitDy=0;elbow=vertical;" edge="1" parent="1" source="GLvIYybSQvGpUuVY2-31-12" target="11">
                    <mxGeometry relative="1" as="geometry">
                        <mxPoint x="545" y="-10" as="sourcePoint"/>
                        <mxPoint x="440" y="90" as="targetPoint"/>
                    </mxGeometry>
                </mxCell>
                <mxCell id="GLvIYybSQvGpUuVY2-31-28" value="" style="edgeStyle=elbowEdgeStyle;html=1;endArrow=classic;endFill=1;startArrow=none;startFill=0;exitX=0.5;exitY=1;exitDx=0;exitDy=0;elbow=vertical;entryX=0.5;entryY=0;entryDx=0;entryDy=0;entryPerimeter=0;" edge="1" parent="1" source="GLvIYybSQvGpUuVY2-31-12" target="GLvIYybSQvGpUuVY2-31-33">
                    <mxGeometry relative="1" as="geometry">
                        <mxPoint x="575" y="20" as="sourcePoint"/>
                        <mxPoint x="470" y="120" as="targetPoint"/>
                    </mxGeometry>
                </mxCell>
                <mxCell id="GLvIYybSQvGpUuVY2-31-29" value="" style="edgeStyle=elbowEdgeStyle;html=1;endArrow=classic;endFill=1;startArrow=none;startFill=0;exitX=0.5;exitY=1;exitDx=0;exitDy=0;elbow=vertical;" edge="1" parent="1" source="GLvIYybSQvGpUuVY2-31-12" target="5">
                    <mxGeometry relative="1" as="geometry">
                        <mxPoint x="585" y="30" as="sourcePoint"/>
                        <mxPoint x="480" y="130" as="targetPoint"/>
                    </mxGeometry>
                </mxCell>
                <mxCell id="GLvIYybSQvGpUuVY2-31-30" value="" style="edgeStyle=elbowEdgeStyle;html=1;endArrow=classic;endFill=1;startArrow=none;startFill=0;exitX=0.5;exitY=1;exitDx=0;exitDy=0;elbow=vertical;" edge="1" parent="1" source="GLvIYybSQvGpUuVY2-31-12" target="9">
                    <mxGeometry relative="1" as="geometry">
                        <mxPoint x="595" y="40" as="sourcePoint"/>
                        <mxPoint x="490" y="140" as="targetPoint"/>
                    </mxGeometry>
                </mxCell>
                <mxCell id="GLvIYybSQvGpUuVY2-31-31" value="" style="edgeStyle=elbowEdgeStyle;html=1;endArrow=classic;endFill=1;startArrow=none;startFill=0;exitX=0.5;exitY=1;exitDx=0;exitDy=0;elbow=vertical;" edge="1" parent="1" source="GLvIYybSQvGpUuVY2-31-12" target="10">
                    <mxGeometry relative="1" as="geometry">
                        <mxPoint x="605" y="50" as="sourcePoint"/>
                        <mxPoint x="500" y="150" as="targetPoint"/>
                    </mxGeometry>
                </mxCell>
                <mxCell id="GLvIYybSQvGpUuVY2-31-32" value="" style="edgeStyle=elbowEdgeStyle;html=1;endArrow=classic;endFill=1;startArrow=none;startFill=0;exitX=0.5;exitY=1;exitDx=0;exitDy=0;elbow=vertical;entryX=0.5;entryY=0;entryDx=0;entryDy=0;entryPerimeter=0;" edge="1" parent="1" source="GLvIYybSQvGpUuVY2-31-12" target="2">
                    <mxGeometry relative="1" as="geometry">
                        <mxPoint x="605" y="50" as="sourcePoint"/>
                        <mxPoint x="500" y="150" as="targetPoint"/>
                    </mxGeometry>
                </mxCell>
                <mxCell id="GLvIYybSQvGpUuVY2-31-33" value="Parámetros" style="html=1;whiteSpace=wrap;strokeColor=none;fillColor=#0079D6;labelPosition=center;verticalLabelPosition=middle;verticalAlign=top;align=center;fontSize=12;outlineConnect=0;spacingTop=-6;fontColor=#FFFFFF;sketch=0;shape=mxgraph.sitemap.search;" vertex="1" parent="1">
                    <mxGeometry x="510" y="180" width="120" height="70" as="geometry"/>
                </mxCell>
                <mxCell id="GLvIYybSQvGpUuVY2-31-34" value="Editar modelo" style="html=1;whiteSpace=wrap;strokeColor=none;fillColor=#0079D6;labelPosition=center;verticalLabelPosition=middle;verticalAlign=top;align=center;fontSize=12;outlineConnect=0;spacingTop=-6;fontColor=#FFFFFF;sketch=0;shape=mxgraph.sitemap.form;" vertex="1" parent="1">
                    <mxGeometry x="30" y="280" width="120" height="70" as="geometry"/>
                </mxCell>
                <mxCell id="GLvIYybSQvGpUuVY2-31-35" value="Editar usuarios" style="html=1;whiteSpace=wrap;strokeColor=none;fillColor=#0079D6;labelPosition=center;verticalLabelPosition=middle;verticalAlign=top;align=center;fontSize=12;outlineConnect=0;spacingTop=-6;fontColor=#FFFFFF;sketch=0;shape=mxgraph.sitemap.form;" vertex="1" parent="1">
                    <mxGeometry x="340" y="280" width="120" height="70" as="geometry"/>
                </mxCell>
                <mxCell id="GLvIYybSQvGpUuVY2-31-37" style="edgeStyle=orthogonalEdgeStyle;html=1;entryX=1;entryY=0.5;entryDx=0;entryDy=0;entryPerimeter=0;exitX=0.5;exitY=1;exitDx=0;exitDy=0;exitPerimeter=0;elbow=vertical;" edge="1" parent="1" source="11" target="GLvIYybSQvGpUuVY2-31-34">
                    <mxGeometry relative="1" as="geometry">
                        <mxPoint x="195" y="285" as="sourcePoint"/>
                        <mxPoint x="165" y="430" as="targetPoint"/>
                    </mxGeometry>
                </mxCell>
                <mxCell id="GLvIYybSQvGpUuVY2-31-38" style="edgeStyle=orthogonalEdgeStyle;html=1;entryX=0;entryY=0.5;entryDx=0;entryDy=0;entryPerimeter=0;exitX=0.5;exitY=1;exitDx=0;exitDy=0;exitPerimeter=0;elbow=vertical;" edge="1" parent="1" source="10" target="GLvIYybSQvGpUuVY2-31-35">
                    <mxGeometry relative="1" as="geometry">
                        <mxPoint x="190" y="260" as="sourcePoint"/>
                        <mxPoint x="170" y="315" as="targetPoint"/>
                    </mxGeometry>
                </mxCell>
            </root>
        </mxGraphModel>
    </diagram>
</mxfile>